<?xml version="1.0" standalone="no"?><!DOCTYPE svg PUBLIC "-//W3C//DTD SVG 1.1//EN" "http://www.w3.org/Graphics/SVG/1.1/DTD/svg11.dtd"><svg t="1724314718132" class="icon" viewBox="0 0 1024 1024" version="1.1" xmlns="http://www.w3.org/2000/svg" p-id="1520" xmlns:xlink="http://www.w3.org/1999/xlink" width="200" height="200"><path d="M524.7232 303.488H301.3888a33.5616 33.5616 0 0 1-33.28-33.28 33.5616 33.5616 0 0 1 33.4592-33.4848h223.2064a33.5872 33.5872 0 0 1 33.4848 33.4848 33.5872 33.5872 0 0 1-33.4848 33.4848z m89.2928 145.1008H301.3888a33.5616 33.5616 0 0 1-33.4592-33.4848 33.5616 33.5616 0 0 1 33.4592-33.4848h312.4992a33.5872 33.5872 0 0 1 33.4848 33.4848 33.5872 33.5872 0 0 1-33.4848 33.4848z m0 0" fill="#FFFFFF" p-id="1521"></path><path d="M634.7264 895.7696H188.416a111.9232 111.9232 0 0 1-111.616-111.616V215.0656a111.9232 111.9232 0 0 1 111.616-111.616h446.4384a111.9232 111.9232 0 0 1 111.5904 111.616v569.1904a111.9232 111.9232 0 0 1-111.5904 111.616z m0 0" fill="#2680EB" p-id="1522"></path><path d="M534.272 293.1968H199.4496a33.5872 33.5872 0 0 1-33.4848-33.4848 33.5872 33.5872 0 0 1 33.4848-33.4848h334.8224a33.5872 33.5872 0 0 1 33.4848 33.4848 33.5872 33.5872 0 0 1-33.4848 33.4848z m-111.5904 145.1008H199.4752a33.5872 33.5872 0 0 1-33.4848-33.4848 33.5872 33.5872 0 0 1 33.4848-33.4848h223.2064a33.5872 33.5872 0 0 1 33.4848 33.4848 33.5872 33.5872 0 0 1-33.4848 33.4848z m-66.9696 145.1008h-156.16a33.5872 33.5872 0 0 1-33.4848-33.4848 33.5872 33.5872 0 0 1 33.4848-33.4848h156.16a33.5872 33.5872 0 0 1 33.4848 33.4848 33.5872 33.5872 0 0 1-33.4848 33.4848z m0 0" fill="#FFFFFF" p-id="1523"></path><path d="M527.3344 715.5712a207.8464 207.8464 0 0 0 104.96 180.2752 211.4816 211.4816 0 0 0 209.92 0 207.36 207.36 0 0 0 0-360.576 211.4816 211.4816 0 0 0-209.92 0 207.8464 207.8464 0 0 0-104.96 180.2752z m0 0" fill="#2680EB" p-id="1524"></path><path d="M727.4752 773.6832a29.056 29.056 0 0 1-29.056-29.056V641.536a29.056 29.056 0 0 1 29.056-29.056 29.056 29.056 0 0 1 29.056 29.056v103.0912a29.056 29.056 0 0 1-29.056 29.056z m-29.7728-29.056a29.056 29.056 0 0 1 29.056-29.056h121.728a29.056 29.056 0 0 1 29.056 29.056 29.056 29.056 0 0 1-29.056 29.056h-121.728a29.056 29.056 0 0 1-29.0816-29.056z" fill="#FFFFFF" p-id="1525"></path></svg>